<mxfile host="app.diagrams.net" modified="2022-07-08T03:19:02.981Z" agent="5.0 (Windows NT 10.0; Win64; x64) AppleWebKit/537.36 (KHTML, like Gecko) Chrome/103.0.5060.53 Safari/537.36 Edg/103.0.1264.37" etag="g5WoF8dEmZszXp10S6aD" version="20.0.3" type="github" pages="2">
  <diagram id="LCvre2FwaOWorcpkqi6q" name="Dynamic graph generation">
    <mxGraphModel dx="981" dy="525" grid="1" gridSize="10" guides="1" tooltips="1" connect="1" arrows="1" fold="1" page="1" pageScale="1" pageWidth="827" pageHeight="1169" math="0" shadow="0">
      <root>
        <mxCell id="0" />
        <mxCell id="1" parent="0" />
        <mxCell id="BvpO0jtpA43NA812D6vw-20" value="" style="ellipse;whiteSpace=wrap;html=1;aspect=fixed;fillColor=#dae8fc;strokeColor=#6c8ebf;" vertex="1" parent="1">
          <mxGeometry x="310" y="310" width="10" height="10" as="geometry" />
        </mxCell>
        <mxCell id="BvpO0jtpA43NA812D6vw-22" value="" style="ellipse;whiteSpace=wrap;html=1;aspect=fixed;fillColor=#f8cecc;strokeColor=#b85450;" vertex="1" parent="1">
          <mxGeometry x="340" y="310" width="10" height="10" as="geometry" />
        </mxCell>
        <mxCell id="BvpO0jtpA43NA812D6vw-23" value="" style="ellipse;whiteSpace=wrap;html=1;aspect=fixed;fillColor=#e1d5e7;strokeColor=#9673a6;" vertex="1" parent="1">
          <mxGeometry x="330" y="330" width="10" height="10" as="geometry" />
        </mxCell>
        <mxCell id="BvpO0jtpA43NA812D6vw-24" value="" style="ellipse;whiteSpace=wrap;html=1;aspect=fixed;fillColor=#d5e8d4;strokeColor=#82b366;" vertex="1" parent="1">
          <mxGeometry x="370" y="300" width="10" height="10" as="geometry" />
        </mxCell>
        <mxCell id="BvpO0jtpA43NA812D6vw-29" value="" style="ellipse;whiteSpace=wrap;html=1;aspect=fixed;fillColor=#fff2cc;strokeColor=#d6b656;" vertex="1" parent="1">
          <mxGeometry x="350" y="270" width="10" height="10" as="geometry" />
        </mxCell>
        <mxCell id="BvpO0jtpA43NA812D6vw-31" value="" style="endArrow=none;html=1;rounded=0;fontFamily=Helvetica;fontSize=12;fontColor=default;exitX=0.5;exitY=0;exitDx=0;exitDy=0;entryX=0.5;entryY=1;entryDx=0;entryDy=0;" edge="1" parent="1" source="BvpO0jtpA43NA812D6vw-22" target="BvpO0jtpA43NA812D6vw-29">
          <mxGeometry width="50" height="50" relative="1" as="geometry">
            <mxPoint x="310" y="330" as="sourcePoint" />
            <mxPoint x="360" y="280" as="targetPoint" />
          </mxGeometry>
        </mxCell>
        <mxCell id="BvpO0jtpA43NA812D6vw-33" value="" style="endArrow=none;html=1;rounded=0;fontFamily=Helvetica;fontSize=12;fontColor=default;exitX=1;exitY=0.5;exitDx=0;exitDy=0;entryX=0;entryY=0.5;entryDx=0;entryDy=0;" edge="1" parent="1" source="BvpO0jtpA43NA812D6vw-22" target="BvpO0jtpA43NA812D6vw-24">
          <mxGeometry width="50" height="50" relative="1" as="geometry">
            <mxPoint x="355" y="320" as="sourcePoint" />
            <mxPoint x="365" y="290" as="targetPoint" />
          </mxGeometry>
        </mxCell>
        <mxCell id="BvpO0jtpA43NA812D6vw-34" value="" style="endArrow=none;html=1;rounded=0;fontFamily=Helvetica;fontSize=12;fontColor=default;exitX=0;exitY=1;exitDx=0;exitDy=0;entryX=1;entryY=0.5;entryDx=0;entryDy=0;" edge="1" parent="1" source="BvpO0jtpA43NA812D6vw-29" target="BvpO0jtpA43NA812D6vw-20">
          <mxGeometry width="50" height="50" relative="1" as="geometry">
            <mxPoint x="310" y="350" as="sourcePoint" />
            <mxPoint x="320" y="320" as="targetPoint" />
          </mxGeometry>
        </mxCell>
        <mxCell id="BvpO0jtpA43NA812D6vw-35" value="" style="endArrow=none;html=1;rounded=0;fontFamily=Helvetica;fontSize=12;fontColor=default;exitX=1;exitY=0;exitDx=0;exitDy=0;" edge="1" parent="1" source="BvpO0jtpA43NA812D6vw-23">
          <mxGeometry width="50" height="50" relative="1" as="geometry">
            <mxPoint x="330" y="350" as="sourcePoint" />
            <mxPoint x="340" y="315" as="targetPoint" />
          </mxGeometry>
        </mxCell>
        <mxCell id="BvpO0jtpA43NA812D6vw-37" value="&lt;b&gt;Speed(t)&lt;/b&gt;" style="rounded=1;whiteSpace=wrap;html=1;fontFamily=Helvetica;fontSize=12;fontColor=default;strokeColor=default;fillColor=default;" vertex="1" parent="1">
          <mxGeometry x="320" y="370" width="60" height="20" as="geometry" />
        </mxCell>
        <mxCell id="BvpO0jtpA43NA812D6vw-43" style="edgeStyle=orthogonalEdgeStyle;rounded=0;orthogonalLoop=1;jettySize=auto;html=1;fontFamily=Helvetica;fontSize=12;fontColor=default;" edge="1" parent="1" source="BvpO0jtpA43NA812D6vw-39">
          <mxGeometry relative="1" as="geometry">
            <mxPoint x="510" y="310" as="targetPoint" />
          </mxGeometry>
        </mxCell>
        <mxCell id="BvpO0jtpA43NA812D6vw-39" value="&lt;b&gt;Gconv&lt;/b&gt;" style="rounded=1;whiteSpace=wrap;html=1;fontFamily=Helvetica;fontSize=12;fontColor=default;strokeColor=default;fillColor=default;" vertex="1" parent="1">
          <mxGeometry x="420" y="300" width="56" height="20" as="geometry" />
        </mxCell>
        <mxCell id="BvpO0jtpA43NA812D6vw-40" value="A" style="text;html=1;align=center;verticalAlign=middle;resizable=0;points=[];autosize=1;strokeColor=none;fillColor=none;fontSize=12;fontFamily=Helvetica;fontColor=default;" vertex="1" parent="1">
          <mxGeometry x="310" y="270" width="30" height="30" as="geometry" />
        </mxCell>
        <mxCell id="BvpO0jtpA43NA812D6vw-41" value="" style="endArrow=classic;html=1;rounded=0;fontFamily=Helvetica;fontSize=12;fontColor=default;" edge="1" parent="1">
          <mxGeometry width="50" height="50" relative="1" as="geometry">
            <mxPoint x="390" y="310" as="sourcePoint" />
            <mxPoint x="420" y="310" as="targetPoint" />
          </mxGeometry>
        </mxCell>
        <mxCell id="BvpO0jtpA43NA812D6vw-42" value="" style="endArrow=classic;html=1;rounded=0;fontFamily=Helvetica;fontSize=12;fontColor=default;entryX=0.5;entryY=1;entryDx=0;entryDy=0;" edge="1" parent="1" target="BvpO0jtpA43NA812D6vw-39">
          <mxGeometry width="50" height="50" relative="1" as="geometry">
            <mxPoint x="389" y="380" as="sourcePoint" />
            <mxPoint x="420" y="320" as="targetPoint" />
            <Array as="points">
              <mxPoint x="448" y="380" />
            </Array>
          </mxGeometry>
        </mxCell>
        <mxCell id="BvpO0jtpA43NA812D6vw-46" value="" style="html=1;whiteSpace=wrap;shape=isoCube2;backgroundOutline=1;isoAngle=15;fontFamily=Helvetica;fontSize=12;fontColor=default;strokeColor=default;fillColor=default;direction=east;" vertex="1" parent="1">
          <mxGeometry x="520" y="294.69" width="70" height="40.62" as="geometry" />
        </mxCell>
        <mxCell id="BvpO0jtpA43NA812D6vw-47" value="&lt;b&gt;&lt;font style=&quot;font-size: 10px;&quot;&gt;Dynamic Filter&lt;/font&gt;&lt;/b&gt;" style="text;html=1;align=center;verticalAlign=middle;resizable=0;points=[];autosize=1;strokeColor=none;fillColor=none;fontSize=12;fontFamily=Helvetica;fontColor=default;" vertex="1" parent="1">
          <mxGeometry x="500" y="270" width="110" height="30" as="geometry" />
        </mxCell>
        <mxCell id="BvpO0jtpA43NA812D6vw-48" value="" style="endArrow=classic;html=1;rounded=0;fontFamily=Helvetica;fontSize=10;fontColor=default;" edge="1" parent="1">
          <mxGeometry width="50" height="50" relative="1" as="geometry">
            <mxPoint x="554.66" y="340" as="sourcePoint" />
            <mxPoint x="554.66" y="365.31" as="targetPoint" />
          </mxGeometry>
        </mxCell>
        <mxCell id="BvpO0jtpA43NA812D6vw-50" value="&lt;b&gt;Dynamic adj&lt;/b&gt;" style="text;html=1;align=center;verticalAlign=middle;resizable=0;points=[];autosize=1;strokeColor=none;fillColor=none;fontSize=10;fontFamily=Helvetica;fontColor=default;" vertex="1" parent="1">
          <mxGeometry x="510" y="365" width="90" height="30" as="geometry" />
        </mxCell>
      </root>
    </mxGraphModel>
  </diagram>
  <diagram id="IXgBB--9gof6fftK6sIB" name="TCN">
    <mxGraphModel dx="813" dy="435" grid="1" gridSize="10" guides="1" tooltips="1" connect="1" arrows="1" fold="1" page="1" pageScale="1" pageWidth="827" pageHeight="1169" math="0" shadow="0">
      <root>
        <mxCell id="0" />
        <mxCell id="1" parent="0" />
        <mxCell id="ZR1eLQYfI3mB6odtv17A-2" value="" style="rounded=0;whiteSpace=wrap;html=1;fontFamily=Helvetica;fontSize=10;dashed=1;strokeColor=#7EA6E0;strokeWidth=2;" vertex="1" parent="1">
          <mxGeometry x="330" y="300" width="220" height="140" as="geometry" />
        </mxCell>
        <mxCell id="ZR1eLQYfI3mB6odtv17A-3" value="&lt;b&gt;Dilated&lt;br&gt;Conv&lt;/b&gt;" style="rounded=1;whiteSpace=wrap;html=1;fontFamily=Helvetica;fontSize=10;strokeColor=#6c8ebf;fillColor=#dae8fc;" vertex="1" parent="1">
          <mxGeometry x="340" y="360" width="80" height="40" as="geometry" />
        </mxCell>
        <mxCell id="ZR1eLQYfI3mB6odtv17A-9" style="edgeStyle=orthogonalEdgeStyle;rounded=0;orthogonalLoop=1;jettySize=auto;html=1;entryX=1;entryY=0.5;entryDx=0;entryDy=0;fontFamily=Helvetica;fontSize=19;fontColor=default;strokeWidth=2;" edge="1" parent="1" source="ZR1eLQYfI3mB6odtv17A-4" target="ZR1eLQYfI3mB6odtv17A-8">
          <mxGeometry relative="1" as="geometry">
            <Array as="points">
              <mxPoint x="500" y="330" />
            </Array>
          </mxGeometry>
        </mxCell>
        <mxCell id="ZR1eLQYfI3mB6odtv17A-4" value="&lt;b&gt;Dilated&lt;br&gt;Conv&lt;/b&gt;" style="rounded=1;whiteSpace=wrap;html=1;fontFamily=Helvetica;fontSize=10;strokeColor=#6c8ebf;fillColor=#dae8fc;" vertex="1" parent="1">
          <mxGeometry x="460" y="360" width="80" height="40" as="geometry" />
        </mxCell>
        <mxCell id="ZR1eLQYfI3mB6odtv17A-5" value="" style="endArrow=classic;startArrow=classic;html=1;rounded=0;fontFamily=Helvetica;fontSize=10;fontColor=default;exitX=0.5;exitY=1;exitDx=0;exitDy=0;entryX=0.5;entryY=1;entryDx=0;entryDy=0;strokeWidth=2;" edge="1" parent="1" source="ZR1eLQYfI3mB6odtv17A-3" target="ZR1eLQYfI3mB6odtv17A-4">
          <mxGeometry width="50" height="50" relative="1" as="geometry">
            <mxPoint x="380" y="450" as="sourcePoint" />
            <mxPoint x="540" y="440" as="targetPoint" />
            <Array as="points">
              <mxPoint x="380" y="430" />
              <mxPoint x="390" y="430" />
              <mxPoint x="500" y="430" />
            </Array>
          </mxGeometry>
        </mxCell>
        <mxCell id="ZR1eLQYfI3mB6odtv17A-6" value="" style="endArrow=none;html=1;rounded=0;fontFamily=Helvetica;fontSize=10;fontColor=default;strokeWidth=2;" edge="1" parent="1">
          <mxGeometry width="50" height="50" relative="1" as="geometry">
            <mxPoint x="440" y="500" as="sourcePoint" />
            <mxPoint x="440" y="430" as="targetPoint" />
          </mxGeometry>
        </mxCell>
        <mxCell id="ZR1eLQYfI3mB6odtv17A-7" value="" style="endArrow=classic;html=1;rounded=0;fontFamily=Helvetica;fontSize=10;fontColor=default;exitX=0.5;exitY=0;exitDx=0;exitDy=0;strokeWidth=2;" edge="1" parent="1" source="ZR1eLQYfI3mB6odtv17A-3" target="ZR1eLQYfI3mB6odtv17A-8">
          <mxGeometry width="50" height="50" relative="1" as="geometry">
            <mxPoint x="380" y="355" as="sourcePoint" />
            <mxPoint x="430" y="330" as="targetPoint" />
            <Array as="points">
              <mxPoint x="380" y="330" />
            </Array>
          </mxGeometry>
        </mxCell>
        <mxCell id="ZR1eLQYfI3mB6odtv17A-8" value="&lt;font style=&quot;font-size: 19px;&quot;&gt;×&lt;/font&gt;" style="ellipse;whiteSpace=wrap;html=1;aspect=fixed;fontFamily=Helvetica;fontSize=10;strokeColor=#d6b656;fillColor=#fff2cc;" vertex="1" parent="1">
          <mxGeometry x="430" y="317.5" width="25" height="25" as="geometry" />
        </mxCell>
        <mxCell id="ZR1eLQYfI3mB6odtv17A-10" value="tanh" style="text;html=1;align=center;verticalAlign=middle;resizable=0;points=[];autosize=1;strokeColor=none;fillColor=none;fontSize=19;fontFamily=Helvetica;fontColor=default;" vertex="1" parent="1">
          <mxGeometry x="330" y="320" width="60" height="40" as="geometry" />
        </mxCell>
        <mxCell id="ZR1eLQYfI3mB6odtv17A-11" value="sig" style="text;html=1;align=center;verticalAlign=middle;resizable=0;points=[];autosize=1;strokeColor=none;fillColor=none;fontSize=19;fontFamily=Helvetica;fontColor=default;strokeWidth=2;" vertex="1" parent="1">
          <mxGeometry x="495" y="320" width="50" height="40" as="geometry" />
        </mxCell>
        <mxCell id="ZR1eLQYfI3mB6odtv17A-12" value="" style="endArrow=classic;html=1;rounded=0;fontFamily=Helvetica;fontSize=19;fontColor=default;strokeWidth=2;" edge="1" parent="1">
          <mxGeometry width="50" height="50" relative="1" as="geometry">
            <mxPoint x="439.8" y="317.5" as="sourcePoint" />
            <mxPoint x="439.8" y="280" as="targetPoint" />
          </mxGeometry>
        </mxCell>
        <mxCell id="ZR1eLQYfI3mB6odtv17A-20" style="edgeStyle=orthogonalEdgeStyle;rounded=0;orthogonalLoop=1;jettySize=auto;html=1;entryX=0.5;entryY=1;entryDx=0;entryDy=0;fontFamily=Helvetica;fontSize=19;fontColor=default;strokeWidth=2;" edge="1" parent="1" source="ZR1eLQYfI3mB6odtv17A-14" target="ZR1eLQYfI3mB6odtv17A-18">
          <mxGeometry relative="1" as="geometry" />
        </mxCell>
        <mxCell id="ZR1eLQYfI3mB6odtv17A-14" value="GCN" style="rounded=1;whiteSpace=wrap;html=1;fontFamily=Helvetica;fontSize=19;strokeColor=#6c8ebf;fillColor=#dae8fc;" vertex="1" parent="1">
          <mxGeometry x="405" y="240" width="70" height="40" as="geometry" />
        </mxCell>
        <mxCell id="ZR1eLQYfI3mB6odtv17A-16" value="" style="endArrow=classic;html=1;rounded=0;fontFamily=Helvetica;fontSize=19;fontColor=default;entryX=0;entryY=0.5;entryDx=0;entryDy=0;strokeWidth=2;" edge="1" parent="1" target="ZR1eLQYfI3mB6odtv17A-18">
          <mxGeometry width="50" height="50" relative="1" as="geometry">
            <mxPoint x="440" y="445" as="sourcePoint" />
            <mxPoint x="420" y="220" as="targetPoint" />
            <Array as="points">
              <mxPoint x="320" y="445" />
              <mxPoint x="320" y="210" />
            </Array>
          </mxGeometry>
        </mxCell>
        <mxCell id="ZR1eLQYfI3mB6odtv17A-24" style="edgeStyle=orthogonalEdgeStyle;rounded=0;orthogonalLoop=1;jettySize=auto;html=1;fontFamily=Helvetica;fontSize=17;fontColor=default;strokeWidth=2;" edge="1" parent="1" source="ZR1eLQYfI3mB6odtv17A-18">
          <mxGeometry relative="1" as="geometry">
            <mxPoint x="440" y="170" as="targetPoint" />
          </mxGeometry>
        </mxCell>
        <mxCell id="ZR1eLQYfI3mB6odtv17A-18" value="+" style="ellipse;whiteSpace=wrap;html=1;aspect=fixed;fontFamily=Helvetica;fontSize=19;strokeColor=#d6b656;fillColor=#fff2cc;" vertex="1" parent="1">
          <mxGeometry x="430" y="200" width="20" height="20" as="geometry" />
        </mxCell>
        <mxCell id="ZR1eLQYfI3mB6odtv17A-21" value="&lt;font style=&quot;font-size: 17px;&quot;&gt;Residuals&lt;/font&gt;" style="text;html=1;align=center;verticalAlign=middle;resizable=0;points=[];autosize=1;strokeColor=none;fillColor=none;fontSize=19;fontFamily=Helvetica;fontColor=default;" vertex="1" parent="1">
          <mxGeometry x="315" y="200" width="100" height="40" as="geometry" />
        </mxCell>
        <mxCell id="ZR1eLQYfI3mB6odtv17A-23" value="" style="rounded=0;whiteSpace=wrap;html=1;fontFamily=Helvetica;fontSize=17;fontColor=default;strokeColor=default;fillColor=none;dashed=1;strokeWidth=2;" vertex="1" parent="1">
          <mxGeometry x="310" y="170" width="250" height="290" as="geometry" />
        </mxCell>
        <mxCell id="ZR1eLQYfI3mB6odtv17A-25" value="" style="endArrow=none;html=1;rounded=0;fontFamily=Helvetica;fontSize=17;fontColor=default;strokeWidth=1;dashed=1;dashPattern=1 2;entryX=1.005;entryY=0.966;entryDx=0;entryDy=0;entryPerimeter=0;exitX=0.038;exitY=0.002;exitDx=0;exitDy=0;exitPerimeter=0;" edge="1" parent="1" source="ZR1eLQYfI3mB6odtv17A-23" target="ZR1eLQYfI3mB6odtv17A-23">
          <mxGeometry width="50" height="50" relative="1" as="geometry">
            <mxPoint x="250" y="170" as="sourcePoint" />
            <mxPoint x="570" y="520" as="targetPoint" />
            <Array as="points">
              <mxPoint x="320" y="160" />
              <mxPoint x="570" y="160" />
              <mxPoint x="570" y="450" />
            </Array>
          </mxGeometry>
        </mxCell>
        <mxCell id="ZR1eLQYfI3mB6odtv17A-27" value="" style="endArrow=none;html=1;rounded=0;fontFamily=Helvetica;fontSize=17;fontColor=default;strokeWidth=1;dashed=1;dashPattern=1 2;entryX=1.005;entryY=0.966;entryDx=0;entryDy=0;entryPerimeter=0;exitX=0.038;exitY=0.002;exitDx=0;exitDy=0;exitPerimeter=0;" edge="1" parent="1">
          <mxGeometry width="50" height="50" relative="1" as="geometry">
            <mxPoint x="330" y="160.44000000000005" as="sourcePoint" />
            <mxPoint x="571.75" y="440" as="targetPoint" />
            <Array as="points">
              <mxPoint x="330.5" y="149.86" />
              <mxPoint x="580.5" y="149.86" />
              <mxPoint x="580.5" y="439.86" />
            </Array>
          </mxGeometry>
        </mxCell>
        <mxCell id="ZR1eLQYfI3mB6odtv17A-28" value="" style="endArrow=none;html=1;rounded=0;fontFamily=Helvetica;fontSize=17;fontColor=default;strokeWidth=1;dashed=1;dashPattern=1 2;entryX=1.005;entryY=0.966;entryDx=0;entryDy=0;entryPerimeter=0;exitX=0.038;exitY=0.002;exitDx=0;exitDy=0;exitPerimeter=0;" edge="1" parent="1">
          <mxGeometry width="50" height="50" relative="1" as="geometry">
            <mxPoint x="340" y="150.58000000000004" as="sourcePoint" />
            <mxPoint x="581.75" y="430.14" as="targetPoint" />
            <Array as="points">
              <mxPoint x="340.5" y="140" />
              <mxPoint x="590.5" y="140" />
              <mxPoint x="590.5" y="430" />
            </Array>
          </mxGeometry>
        </mxCell>
        <mxCell id="ZR1eLQYfI3mB6odtv17A-29" value="" style="endArrow=classic;html=1;rounded=0;fontFamily=Helvetica;fontSize=17;fontColor=default;strokeWidth=2;" edge="1" parent="1">
          <mxGeometry width="50" height="50" relative="1" as="geometry">
            <mxPoint x="560" y="420" as="sourcePoint" />
            <mxPoint x="650" y="420" as="targetPoint" />
          </mxGeometry>
        </mxCell>
        <mxCell id="ZR1eLQYfI3mB6odtv17A-30" value="" style="endArrow=classic;html=1;rounded=0;fontFamily=Helvetica;fontSize=17;fontColor=default;strokeWidth=2;" edge="1" parent="1">
          <mxGeometry width="50" height="50" relative="1" as="geometry">
            <mxPoint x="570" y="400" as="sourcePoint" />
            <mxPoint x="650" y="400" as="targetPoint" />
          </mxGeometry>
        </mxCell>
        <mxCell id="ZR1eLQYfI3mB6odtv17A-31" value="" style="endArrow=classic;html=1;rounded=0;fontFamily=Helvetica;fontSize=17;fontColor=default;strokeWidth=2;" edge="1" parent="1">
          <mxGeometry width="50" height="50" relative="1" as="geometry">
            <mxPoint x="580" y="379.71" as="sourcePoint" />
            <mxPoint x="650" y="380" as="targetPoint" />
          </mxGeometry>
        </mxCell>
        <mxCell id="ZR1eLQYfI3mB6odtv17A-32" value="" style="endArrow=classic;html=1;rounded=0;fontFamily=Helvetica;fontSize=17;fontColor=default;strokeWidth=2;" edge="1" parent="1">
          <mxGeometry width="50" height="50" relative="1" as="geometry">
            <mxPoint x="590" y="360" as="sourcePoint" />
            <mxPoint x="650" y="360" as="targetPoint" />
          </mxGeometry>
        </mxCell>
        <mxCell id="ZR1eLQYfI3mB6odtv17A-33" value="" style="endArrow=none;html=1;rounded=0;fontFamily=Helvetica;fontSize=17;fontColor=default;strokeWidth=2;" edge="1" parent="1">
          <mxGeometry width="50" height="50" relative="1" as="geometry">
            <mxPoint x="650" y="420" as="sourcePoint" />
            <mxPoint x="650" y="360" as="targetPoint" />
          </mxGeometry>
        </mxCell>
        <mxCell id="ZR1eLQYfI3mB6odtv17A-35" style="edgeStyle=orthogonalEdgeStyle;rounded=0;orthogonalLoop=1;jettySize=auto;html=1;fontFamily=Helvetica;fontSize=17;fontColor=default;strokeWidth=2;" edge="1" parent="1" source="ZR1eLQYfI3mB6odtv17A-34">
          <mxGeometry relative="1" as="geometry">
            <mxPoint x="720" y="390" as="targetPoint" />
          </mxGeometry>
        </mxCell>
        <mxCell id="ZR1eLQYfI3mB6odtv17A-34" value="+" style="ellipse;whiteSpace=wrap;html=1;aspect=fixed;fontFamily=Helvetica;fontSize=19;strokeColor=#d6b656;fillColor=#fff2cc;" vertex="1" parent="1">
          <mxGeometry x="660" y="380" width="20" height="20" as="geometry" />
        </mxCell>
        <mxCell id="ZR1eLQYfI3mB6odtv17A-36" value="output" style="text;html=1;align=center;verticalAlign=middle;resizable=0;points=[];autosize=1;strokeColor=none;fillColor=none;fontSize=17;fontFamily=Helvetica;fontColor=default;" vertex="1" parent="1">
          <mxGeometry x="660" y="355" width="70" height="30" as="geometry" />
        </mxCell>
        <mxCell id="ZR1eLQYfI3mB6odtv17A-37" value="input" style="text;html=1;align=center;verticalAlign=middle;resizable=0;points=[];autosize=1;strokeColor=none;fillColor=none;fontSize=17;fontFamily=Helvetica;fontColor=default;" vertex="1" parent="1">
          <mxGeometry x="440" y="475" width="60" height="30" as="geometry" />
        </mxCell>
        <mxCell id="ZR1eLQYfI3mB6odtv17A-38" value="skip&lt;br&gt;connection" style="text;html=1;align=center;verticalAlign=middle;resizable=0;points=[];autosize=1;strokeColor=none;fillColor=none;fontSize=17;fontFamily=Helvetica;fontColor=default;" vertex="1" parent="1">
          <mxGeometry x="560" y="420" width="110" height="50" as="geometry" />
        </mxCell>
      </root>
    </mxGraphModel>
  </diagram>
</mxfile>
